<svg id="Capa_1" data-name="Capa 1" xmlns="http://www.w3.org/2000/svg" viewBox="0 0 704.98 768"><defs><style>.cls-1{fill:#969696;opacity:0.6;}.cls-2{fill:#fff;}.cls-2,.cls-4,.cls-5,.cls-6{stroke:#1c1c1b;stroke-linecap:round;stroke-miterlimit:10;stroke-width:1.21px;}.cls-3{fill:#1c1c1b;}.cls-4{fill:#00c875;}.cls-5{fill:#ffc123;}.cls-6{fill:none;}.cls-7{fill:#e2b07b;}</style></defs><path class="cls-1" d="M494.72,620.08H377a7.81,7.81,0,0,1-7.52,5.77H222.06a7.83,7.83,0,0,1,0-15.65H339.75a7.8,7.8,0,0,1,7.52-5.77H494.72a7.83,7.83,0,0,1,0,15.65Z"/><path class="cls-2" d="M340.4,186.35s-3.15-2.18-5.32-8.71,2.09-12.73,2.09-12.73l29,8.12.53,4.36,3.52-2.68a9.15,9.15,0,0,1,4.72,7.71c.3,5.61-7.52,11.05-7.52,11.05Z"/><path class="cls-2" d="M315.09,225.3c-8.18-1.9-63.95,44.43-66.43,62.85-2.68,20,12.55,35.61,32.08,25.32s49.59-45,49.59-45Z"/><path class="cls-2" d="M295.49,324.3s-10.06-68,13.06-94.47,97.51-20,109.07,4.61-.5,89.86-.5,89.86Z"/><path class="cls-2" d="M365.28,217.21V198.54s2.5,3.44,5.6.64c1.07-1,3.37-11.49-1.85-12.24-2.77-.4-4.51,2.71-4.51,2.71L363,181.38s-17.37-4.73-22.05,2.87-1.66,26.68,5.13,27h2.1l-.44,5.94S355.31,221.26,365.28,217.21Z"/><path class="cls-2" d="M474.91,572.8l-14.36,6.84s5.47,6.05,6.7,10.13a3.86,3.86,0,0,1-.15,2.28,49.41,49.41,0,0,0,15.08-6.2Z"/><path class="cls-2" d="M482.18,585.85a49.41,49.41,0,0,1-15.08,6.2c-1.34,4.21-7.46,10-6.55,13.57,1.1,4.24,15.6-6.5,18.6-8.32,5.37-3.24,4.88-8.13,3.7-10.25Z"/><path class="cls-2" d="M245.81,597.43c-2.41.1-11.31-6.18-16-4.3-5,2,12.06,18.26,23.79,19.93a37.22,37.22,0,0,0,3.79-6C252.08,605.58,247.61,602.38,245.81,597.43Z"/><path class="cls-2" d="M251.26,580.9s-3.52,15.24-5,16.41a.68.68,0,0,1-.42.12c1.8,5,6.27,8.15,11.58,9.61,4.24-7.95,8.78-19.44,8.78-19.44Z"/><path class="cls-2" d="M235.68,581.4c4.19-78.33,27.74-165.82,59.81-257.33,38.42-4.94,78.89-5.12,121.63,0l20.7,108a169.21,169.21,0,0,0,8.39,29.29L488.3,570.22c-9,10.59-21.23,16.08-35.71,18.11l-63-91.86A170,170,0,0,1,371,460.88l-20.4-53.55c-31.85,49.1-54.6,113-70.64,187.89C253.64,595.26,245.53,588.65,235.68,581.4Z"/><path class="cls-2" d="M398,224.55c-12,4.86-2.26,71.87,7.54,84.44s37.19,13.57,41.71-6.28C451.24,285.28,426.67,213,398,224.55Z"/><circle class="cls-3" cx="353.66" cy="191.25" r="1.17"/><path class="cls-3" d="M345.71,191.75a1.17,1.17,0,1,1-1.16-1.17A1.16,1.16,0,0,1,345.71,191.75Z"/><polygon class="cls-3" points="348.42 191.75 345.9 198.26 348.61 198.54 348.42 191.75"/><path class="cls-3" d="M349.48,201.61l7.5-2.43s.73,2.47-2.37,3.73A4.51,4.51,0,0,1,349.48,201.61Z"/><path class="cls-4" d="M348.42,208.32c-3.11-2.16-7.21-3.28-10-.95-2.59-4.41-5.92-6.31-10.73-4.78-1.46-8.93-13.28-11.51-19.82-5.47-4.15,3.83-2,9-4.91,13.22-3.07,4.52-4.87,7.59-2,13a1.08,1.08,0,0,0,1.46.5l30.2.74c6.42.15,14.34,1.53,19.71-2.77a1.11,1.11,0,0,0,.33-.41,1.13,1.13,0,0,0,.53-.71C354.44,215.61,352.74,211.31,348.42,208.32Z"/><polygon class="cls-5" points="291.31 301.47 295.23 216.88 364.62 211.9 374.37 299.21 291.31 301.47"/><path class="cls-5" d="M365,212.13s3.81,3.4,3.81,3.71,4.94-1.55,4.94-1.55l12.56,81.24-11.92,3.68Z"/><path class="cls-2" d="M272.81,280.13c-7.19.28-11.54,7-12.77,14.23-1.57,9.18,6.71,17.07,15.92,15.71,25.29-3.73,46.53-7.09,46.53-7.09s6.89,4.57,10.41,5,13.91-2.48,13.63-4.11-9.88-4.71-9.88-4.71l-5.1-4.12s1.85-3.25.55-5.3c-1.57.39-3.62,2.72-3.62,2.72a58.46,58.46,0,0,1-5.47,2.39C301.21,282,287.19,279.58,272.81,280.13Z"/><path class="cls-2" d="M415.91,282.18c14.37.83,19.29,32.48,8,31.13-33.37-4-58.08-9.23-58.08-9.23s-7,4.44-10.5,4.82-13.86-2.75-13.55-4.37,10-4.52,10-4.52l5.18-4s-1.79-3.28-.45-5.31c1.56.42,3.56,2.79,3.56,2.79a58.37,58.37,0,0,0,5.43,2.49C387.47,283.55,401.54,281.35,415.91,282.18Z"/><path class="cls-6" d="M405.56,331.1S421.28,418.56,430,453.74s46.41,112.08,46.41,112.08"/><path class="cls-6" d="M337.2,405.49s-61.32,96.7-65.34,182.79"/><path class="cls-3" d="M350.55,407.33c-2.57-10.88-6.73-15.74-11.11-19.75l-10.6,57.36Z"/><path class="cls-3" d="M272.93,310.36l2.06,5.35A56.88,56.88,0,0,0,289.2,308Z"/><path class="cls-3" d="M384.75,307.48,409,311.65s4,4.48,9.57,5.25c-1.7,5.4-2.31,7.26-2.31,7.26S400.19,310.72,384.75,307.48Z"/><path class="cls-3" d="M394.22,269.28s-1.34,12.25-6.28,16.88a67.84,67.84,0,0,1,9.06-2.67Z"/><polyline class="cls-2" points="339.8 354.58 338.72 379.76 345.21 379.76 348.3 388.56 344.44 396.44"/><path class="cls-7" d="M515.92,337c-3.46-9.33-1.22-7.1-10.55-10.55,9.33-3.46,7.09-1.23,10.55-10.56,3.46,9.33,1.22,7.1,10.55,10.56C517.14,329.85,519.38,327.62,515.92,337Z"/><path class="cls-7" d="M427.55,185.57c-3.46-9.33-1.23-7.09-10.56-10.55,9.33-3.46,7.1-1.22,10.56-10.56,3.45,9.34,1.22,7.1,10.55,10.56C428.77,178.48,431,176.24,427.55,185.57Z"/><path class="cls-7" d="M224.82,332.06c-3.46-9.34-1.22-7.1-10.56-10.56,9.34-3.45,7.1-1.22,10.56-10.55,3.45,9.33,1.22,7.1,10.55,10.55C226,325,228.27,322.72,224.82,332.06Z"/><path class="cls-7" d="M505.37,355.43c-2-5.47-.72-4.16-6.19-6.19,5.47-2,4.16-.72,6.19-6.19,2,5.47.71,4.16,6.19,6.19C506.08,351.27,507.39,350,505.37,355.43Z"/><path class="cls-7" d="M189.06,174.71c-3.46-9.33-1.22-7.1-10.56-10.55,9.34-3.46,7.1-1.23,10.56-10.56,3.45,9.33,1.22,7.1,10.55,10.56C190.28,167.61,192.51,165.38,189.06,174.71Z"/><path class="cls-7" d="M196.46,152.85c-1.76-4.73-.62-3.6-5.35-5.35,4.73-1.75,3.59-.62,5.35-5.35,1.75,4.73.61,3.6,5.34,5.35C197.07,149.25,198.21,148.12,196.46,152.85Z"/></svg>