<svg id="Capa_1" data-name="Capa 1" xmlns="http://www.w3.org/2000/svg" viewBox="0 0 1074.74 1080"><defs><style>.cls-1{fill:#969696;opacity:0.6;}.cls-2{fill:#fff;}.cls-2,.cls-3,.cls-4{stroke:#1c1c1b;stroke-linecap:round;stroke-miterlimit:10;stroke-width:1.48px;}.cls-3{fill:#a27bff;}.cls-4{fill:none;}.cls-5{fill:#1c1c1b;}.cls-6{fill:#e2b07b;}</style></defs><ellipse class="cls-1" cx="653.19" cy="836.22" rx="124.17" ry="8.67"/><path class="cls-1" d="M534.53,821.24c0,4.35-65.47,7.88-146.24,7.88S242,825.59,242,821.24s65.48-7.89,146.25-7.89S534.53,816.88,534.53,821.24Z"/><path class="cls-2" d="M829.91,710.22,816.5,707.7l-4,20,7.72,3.22C826,724.86,830.82,718.49,829.91,710.22Z"/><path class="cls-2" d="M833.61,710.92l-3.7-.7c.91,8.27-3.91,14.64-9.69,20.69l4.28,1.78s-.22,13.89,2.45,15.45,10.33-12.45,10.78-22.78S833.61,710.92,833.61,710.92Z"/><path class="cls-2" d="M602.27,825.75V811.09l-22.44,4a39.25,39.25,0,0,1,1.35,8.25A36.43,36.43,0,0,0,602.27,825.75Z"/><path class="cls-2" d="M581.18,823.34a6.71,6.71,0,0,1-.24,2.09c-1,2.77-12.33,9.44-12.11,12.11s21.33,1.89,27.11,0,6.33-9,6.33-9v-2.79A36.43,36.43,0,0,1,581.18,823.34Z"/><rect class="cls-2" x="446.34" y="781.29" width="9.72" height="21.75"/><rect class="cls-2" x="271.48" y="781.29" width="9.72" height="21.75"/><circle class="cls-2" cx="276.34" cy="807.95" r="14.71"/><circle class="cls-2" cx="450.89" cy="807.95" r="14.71"/><path class="cls-2" d="M459,808a8.07,8.07,0,1,1-8.07-8.07A8.07,8.07,0,0,1,459,808Z"/><path class="cls-2" d="M284.4,808a8.07,8.07,0,1,1-8.06-8.07A8.06,8.06,0,0,1,284.4,808Z"/><path class="cls-3" d="M488.54,690.33l-.29.57c4.33,3.14,15,13.7,15,41.59v1.07a43.13,43.13,0,0,1-43.09,42.33H281.68c-2.5-.18-27-1.39-40,17.88a3.7,3.7,0,0,0,6.14,4.14c10.94-16.23,33.21-14.65,33.44-14.63H460.16a50.58,50.58,0,0,0,50.5-49.66v-1.14c0-22.48-6.59-35.25-12.41-42.16Z"/><rect class="cls-3" x="483.18" y="507.73" width="44.02" height="4.52" transform="matrix(0.55, -0.84, 0.84, 0.55, -198.44, 652.16)"/><rect class="cls-3" x="400.08" y="510.4" width="44.01" height="4.53" transform="translate(-238.14 583.92) rotate(-56.69)"/><path class="cls-2" d="M588.84,294.37c-3.88,2.95-4.46,8.88-2.42,13.31s6.06,7.6,10.21,10.16,8.61,4.7,12.26,7.93c8.83,7.81,11.39,20.28,15.23,31.42,4.88,14.14,12.83,27.6,24.76,36.61s28.23,13,42.3,7.91c12.49-4.48,22.08-15.83,25.14-28.74s-.25-27-8.12-37.68-20.06-17.9-33.07-20.45c-9-1.75-19-1.65-26-7.41-4.91-4-7.5-10.11-11.54-15a31.31,31.31,0,0,0-46.68-1.72Z"/><path class="cls-2" d="M580.38,357.24a13.23,13.23,0,0,0-18.51,8.19c-4.62,15.88-13.25,40.18-25.73,53.29-19.55,20.55-63.2,39.68-70.38,46.69s-.54,30.44,16.22,29.88,69.32-25.63,90.64-41.13,44.46-79,44.46-79Z"/><path class="cls-2" d="M546.91,455.3s-13.64-64.44,5.56-89,42.59-27.6,71.9-29,48.46,7,59.73,26.47c15.14,26.13-15.22,96.1-15.22,96.1S570.6,474.68,546.91,455.3Z"/><path class="cls-2" d="M821.27,697.73c-2.68-12.18-13.54-15-16.11-16.48-18.34-10.71-85.28-60.3-98.23-76.7-7.88-10-3.21-80.1-13.33-113.77-9.67-32.16-23.67-33.95-23.67-33.95-52.84,11.8-84.35,6.18-123-1.53-9.53,8.58-15.53,39.29-15.53,56.63,0,120.43,12.15,187.73,26.19,290,0,0,1.06,10.57,6,14.91s40,2,49-1.59,8.32-15,8.32-15l.89-150.42a94.29,94.29,0,0,0,17.65,23.58C676,708.1,789.65,735.63,789.65,735.63s7,5.25,18.31-.28C821.48,728.76,823.89,709.7,821.27,697.73Z"/><line class="cls-4" x1="611.68" y1="806.52" x2="607.48" y2="634.13"/><path class="cls-2" d="M614.33,375.18c-6,13.58-20.42,42.7-37.5,55.55-22.66,17-68.88,28.73-77.11,34.46s-5.55,29.93,11.08,32.14,72.6-13.86,96.17-25.64c18.81-9.39,43.79-48.71,53.13-64.24"/><path class="cls-2" d="M599.94,343s-1.42,4.25,6.08,6.16,20.42-5.33,20-7.58l-3.58-1.5-2.59-13.83s2.59,1.5,4.59,0,2.58-9.42.66-11.08-5.25-.59-5.25-.59l-9.07-15.49s-8,7.56-16.84,9.74c-3.33,10.92-.5,21.5,5.33,21.83H602Z"/><rect class="cls-3" x="413.17" y="490.9" width="115.46" height="6.47" transform="translate(-16.28 16.05) rotate(-1.92)"/><path class="cls-2" d="M469.27,474.84l-9.46,3.47a9.46,9.46,0,0,0-6.11.36c-3.25,1.33-3.3,3.49-3.3,3.49s-7.86,4.82-9.13,7.53-2.1,7.13.91,10.41,9.21,2.92,10.53,1.74a5.1,5.1,0,0,0,1.56-2.63l1-3.23s7.14-.61,10.09-3.48,3.09-5.07,3.09-5.07l5.94-2.07C475.5,481,474.17,477.37,469.27,474.84Z"/><path class="cls-2" d="M500.05,474.81l-9.46,3.48a9.46,9.46,0,0,0-6.11.36c-3.25,1.33-3.3,3.48-3.3,3.48s-7.86,4.82-9.13,7.53-2.1,7.13.91,10.41,9.21,2.93,10.53,1.74a5.06,5.06,0,0,0,1.56-2.62l1-3.23s7.14-.61,10.09-3.48,3.09-5.08,3.09-5.08l5.94-2.07C505.39,480.43,503.59,477,500.05,474.81Z"/><path class="cls-3" d="M505.73,528.34l-.89,17.94-26.06,1,.53-17.23-4.94-.15-.54,17.57-26.07,1,.19-17-4.93-.06-.2,17.21-26.09,1L416.6,533l-4.94,0,.14,16.84-26.1,1-.46-16.42-4.94.14.47,16.47-26.11,1L353.88,536l-4.93.24.78,16.11-26.11,1-1.09-15.88-4.93.34,1.09,15.73-26.11,1-1.41-15.62-4.92.44,1.39,15.37-26.12,1-1.72-15.36-4.9.55,1.68,15-26.11,1-2-15.09-4.89.66,19.34,144.24,4.89-.66L246,672.84l23.64-.16,1.57,14,4.91-.55-1.51-13.49,23.66-.16,1.28,14.15,4.91-.44-1.24-13.74,23.67-.16,1,14.29,4.92-.34-1-14,23.68-.16.69,14.43,4.93-.24-.68-14.22,23.68-.16.41,14.57,4.93-.14-.4-14.46,23.69-.16.12,14.71,4.93,0-.12-14.7,23.69-.16-.17,14.85,4.94.06.17-14.94,23.69-.16-.46,15,4.94.15.46-15.17,23.69-.16-.75,15.14,4.93.24,7.82-158ZM477,606.83l1.68-54.6,26-1-2.73,55Zm-4.94.11-24.93.59.62-54.09,26-1Zm-29.87.7-24.94.59-.43-53.59,26-1Zm-29.87.7-24.94.59-1.49-53.09,26-1Zm-29.88.7-24.94.58-2.55-52.57,26-1Zm-29.88.7-24.95.58L324,558.25l26-1Zm-29.89.7-24.94.58L293,559.45l26-1Zm-29.89.7-24.94.58-5.72-51.07,26-1Zm-29.89.7-24.93.58-6.78-50.56,26-1Zm-24.27,5.51,24.82-.59,5.71,51-23.75.16Zm29.78-.7,24.83-.58,4.65,51.49-23.76.16Zm29.78-.7,24.83-.58,3.6,52-23.77.15Zm29.78-.7,24.84-.58,2.54,52.51-23.78.15Zm29.77-.69,24.85-.59L384,667l-23.78.16Zm29.78-.7,24.85-.58.43,53.51L389,667Zm29.78-.7,24.84-.58-.62,54-23.79.16Zm29.78-.7,24.84-.58-1.68,54.53-23.78.16Zm29.78-.69,24.83-.59-2.72,55-23.78.16Z"/><rect class="cls-3" x="240.4" y="683.26" width="264.09" height="5.76" rx="2.88"/><rect class="cls-3" x="215.73" y="528.82" width="301.95" height="8.64" transform="translate(-17.65 12.58) rotate(-1.92)"/><path class="cls-3" d="M513.42,532.55l-293.15,9.82a4.32,4.32,0,0,1-4.46-4.17h0a4.32,4.32,0,0,1,4.17-4.46l293.15-9.82a4.31,4.31,0,0,1,4.46,4.17h0A4.32,4.32,0,0,1,513.42,532.55Z"/><path class="cls-5" d="M610.05,311.85a1.26,1.26,0,1,1-1.26-1.25A1.25,1.25,0,0,1,610.05,311.85Z"/><path class="cls-5" d="M600.79,311.85a1.26,1.26,0,1,1-1.25-1.25A1.25,1.25,0,0,1,600.79,311.85Z"/><polygon class="cls-5" points="603.16 312.39 600.46 319.39 603.36 319.69 603.16 312.39"/><path class="cls-4" d="M604.26,323.4a4.67,4.67,0,0,0,4.57-2.56"/><path class="cls-4" d="M667.39,471.72s12.62,13.66,14.2,42.57,1,74.63,8.4,95.66,118.26,85.67,118.26,85.67"/><polygon class="cls-5" points="621.86 649.89 621.57 648.57 601.04 553.97 621.14 711.65 621.86 649.89"/><path class="cls-5" d="M627.83,453.32l27.33-36.53s-7.49,20.47-16.69,33.12c-5.18,7.11-9.63,14-10,14s-9.66-.49-9.66-.49Z"/><path class="cls-6" d="M840.31,554.37c-6.15-16.59-2.18-12.62-18.77-18.77,16.59-6.14,12.62-2.17,18.77-18.77,6.14,16.6,2.17,12.63,18.77,18.77C842.48,541.75,846.45,537.78,840.31,554.37Z"/><path class="cls-6" d="M683.13,285.16c-6.14-16.6-2.17-12.63-18.77-18.78,16.6-6.14,12.63-2.17,18.77-18.77,6.15,16.6,2.18,12.63,18.77,18.77C685.31,272.53,689.28,268.56,683.13,285.16Z"/><path class="cls-6" d="M433.64,417.23c-6.14-16.6-2.17-12.63-18.77-18.77,16.6-6.15,12.63-2.18,18.77-18.77,6.15,16.59,2.18,12.62,18.77,18.77C435.82,404.6,439.79,400.63,433.64,417.23Z"/><path class="cls-6" d="M821.54,587.24c-3.61-9.73-1.28-7.4-11-11,9.73-3.6,7.4-1.27,11-11,3.6,9.74,1.27,7.41,11,11C822.81,579.84,825.14,577.51,821.54,587.24Z"/><path class="cls-6" d="M467.6,285.16c-6.15-16.6-2.18-12.63-18.77-18.78,16.59-6.14,12.62-2.17,18.77-18.77,6.14,16.6,2.17,12.63,18.77,18.77C469.77,272.53,473.74,268.56,467.6,285.16Z"/><path class="cls-6" d="M448.83,254.13c-3.12-8.41-1.1-6.39-9.51-9.51,8.41-3.11,6.39-1.1,9.51-9.51,3.11,8.41,1.1,6.4,9.51,9.51C449.93,247.74,451.94,245.72,448.83,254.13Z"/></svg>