<svg width="88" height="84" viewBox="0 0 88 84" fill="none" xmlns="http://www.w3.org/2000/svg">
<path d="M0 33.1777C0.176823 35.7483 0.458856 38.1661 0.866755 40.4022L0.870441 40.4224L0.874191 40.4426C1.69556 44.8634 3.27449 49.4565 6.28542 53.3766C9.35084 57.448 13.4507 60.1451 17.9515 61.6858C21.7482 63.0043 25.9317 63.674 30.211 63.9583C34.1715 64.2215 38.7834 64.3447 44 64.3447C49.2166 64.3447 53.8285 64.2215 57.789 63.9583C62.0931 63.6723 66.2789 62.9994 70.0919 61.7017L70.1371 61.6863L70.1822 61.6706C74.6728 60.104 78.6757 57.4053 81.7259 53.4785L81.8049 53.3767L81.8819 53.2733C84.7859 49.372 86.3132 44.8162 87.1258 40.4426L87.1296 40.4224L87.1332 40.4022C87.5411 38.1661 87.8232 35.7483 88 33.1777H75.3978C75.2493 35.0099 75.04 36.6663 74.7699 38.1469C74.1701 41.3752 73.1805 43.9159 71.8009 45.7692C70.3614 47.6225 68.442 48.9676 66.0428 49.8045C63.5836 50.6415 60.5546 51.1795 56.9558 51.4187C53.3569 51.6578 49.0384 51.7774 44 51.7774C38.9616 51.7774 34.6431 51.6578 31.0442 51.4187C27.4454 51.1795 24.4464 50.6415 22.0472 49.8045C19.588 48.9676 17.6686 47.6225 16.2891 45.7692C14.8495 43.9159 13.8299 41.3752 13.2301 38.1469C12.96 36.6663 12.7507 35.0099 12.6022 33.1777H0Z" fill="#B4C5A1"/>
<path d="M18.4414 83.447C18.5282 81.6965 18.6917 80.0295 18.9559 78.4817L18.9585 78.4664L18.9611 78.4512C19.4141 75.8461 20.3186 72.9003 22.2043 70.2713C24.1656 67.4934 26.8395 65.5952 29.7992 64.5106C32.1713 63.6316 34.6747 63.223 37.0614 63.0535C39.1698 62.9038 41.5798 62.8366 44.2513 62.8366C46.9229 62.8366 49.3329 62.9038 51.4413 63.0535C53.8468 63.2243 56.342 63.6353 58.7091 64.4962L58.7469 64.51L58.7846 64.524C61.7463 65.6281 64.3477 67.5252 66.2843 70.1895L66.3437 70.2712L66.4015 70.3541C68.2206 72.9657 69.0948 75.8818 69.5416 78.4512L69.5442 78.4664L69.5468 78.4817C69.811 80.0295 69.9745 81.6965 70.0613 83.447H59.9923C59.9179 82.2191 59.7993 81.1279 59.6363 80.1734C59.3364 78.4485 58.8416 77.0909 58.1518 76.1007C57.432 75.1105 56.4724 74.3918 55.2727 73.9446C54.0431 73.4974 52.5286 73.2099 50.7292 73.0821C48.9298 72.9544 46.7705 72.8905 44.2513 72.8905C41.7322 72.8905 39.5729 72.9543 37.7735 73.0821C35.9741 73.2099 34.4745 73.4974 33.2749 73.9446C32.0453 74.3918 31.0857 75.1105 30.3959 76.1007C29.6761 77.0909 29.1663 78.4485 28.8664 80.1734C28.7034 81.1279 28.5848 82.2191 28.5104 83.447H18.4414Z" fill="#B4C5A1"/>
<path d="M12.3303 32.1723H24.8976C24.9012 28.443 25.7654 25.0969 27.4902 22.1341C29.2186 19.1285 31.5591 16.7826 34.5118 15.0965C37.4645 13.4104 40.7052 12.5673 44.234 12.5673C47.7988 12.5673 51.0396 13.4104 53.9562 15.0965C56.9089 16.7826 59.2314 19.1285 60.9238 22.1341C62.6486 25.0969 63.5128 28.443 63.5164 32.1723H76.0837C76.0801 26.4526 74.7383 20.9185 71.8304 15.89C69.0483 10.9803 65.1332 7.01376 60.2172 4.19973C55.2841 1.35485 49.863 0 44.234 0C38.6056 0 33.2041 1.37119 28.2799 4.18317C23.3574 6.99408 19.4299 10.9519 16.6123 15.8406C13.6845 20.8822 12.334 26.4338 12.3303 32.1723Z" fill="#B4C5A1"/>
</svg>
