<svg width="159" height="30" viewBox="0 0 159 30" fill="none" xmlns="http://www.w3.org/2000/svg">
<path d="M45.8261 29L38.6689 20.0154V29H33.339V0.827887H38.6689V16.8555L45.75 7.90898H52.6788L43.3896 18.4926L52.7549 29H45.8261ZM54.201 18.3784C54.201 16.2464 54.6198 14.3556 55.4573 12.7059C56.3203 11.0561 57.4751 9.78713 58.9217 8.89882C60.3938 8.01051 62.0308 7.56635 63.8328 7.56635C65.4064 7.56635 66.7769 7.8836 67.9444 8.51811C69.1373 9.15262 70.0891 9.9521 70.7997 10.9165V7.90898H76.1676V29H70.7997V25.9163C70.1145 26.9061 69.1627 27.731 67.9444 28.3909C66.7516 29.0254 65.3683 29.3426 63.7948 29.3426C62.0181 29.3426 60.3938 28.8858 58.9217 27.9721C57.4751 27.0584 56.3203 25.7767 55.4573 24.127C54.6198 22.4519 54.201 20.5357 54.201 18.3784ZM70.7997 18.4545C70.7997 17.1601 70.5459 16.0561 70.0383 15.1424C69.5307 14.2033 68.8454 13.4926 67.9825 13.0104C67.1196 12.5028 66.1932 12.249 65.2034 12.249C64.2135 12.249 63.2998 12.4901 62.4623 12.9724C61.6247 13.4546 60.9395 14.1652 60.4065 15.1043C59.8989 16.018 59.6451 17.1093 59.6451 18.3784C59.6451 19.6474 59.8989 20.7641 60.4065 21.7285C60.9395 22.6676 61.6247 23.391 62.4623 23.8986C63.3252 24.4062 64.2389 24.66 65.2034 24.66C66.1932 24.66 67.1196 24.4189 67.9825 23.9366C68.8454 23.429 69.5307 22.7184 70.0383 21.8047C70.5459 20.8656 70.7997 19.7489 70.7997 18.4545ZM93.0608 7.60442C95.5735 7.60442 97.6039 8.4039 99.1521 10.0029C100.7 11.5764 101.474 13.7845 101.474 16.6271V29H96.1445V17.3504C96.1445 15.6754 95.7257 14.3936 94.8882 13.5053C94.0506 12.5916 92.9085 12.1348 91.4618 12.1348C89.9898 12.1348 88.8223 12.5916 87.9594 13.5053C87.1218 14.3936 86.703 15.6754 86.703 17.3504V29H81.3732V7.90898H86.703V10.5358C87.4137 9.62215 88.3147 8.91151 89.406 8.4039C90.5228 7.87091 91.741 7.60442 93.0608 7.60442ZM111.416 24.6219H120.819V29H105.363V24.698L114.576 12.2871H105.401V7.90898H120.705V12.2109L111.416 24.6219ZM134.311 29.3426C132.281 29.3426 130.453 28.8985 128.829 28.0102C127.205 27.0965 125.923 25.8148 124.984 24.1651C124.07 22.5153 123.614 20.6118 123.614 18.4545C123.614 16.2972 124.083 14.3936 125.022 12.7439C125.987 11.0942 127.294 9.8252 128.943 8.93689C130.593 8.0232 132.433 7.56635 134.464 7.56635C136.494 7.56635 138.334 8.0232 139.984 8.93689C141.634 9.8252 142.928 11.0942 143.867 12.7439C144.831 14.3936 145.314 16.2972 145.314 18.4545C145.314 20.6118 144.819 22.5153 143.829 24.1651C142.864 25.8148 141.545 27.0965 139.87 28.0102C138.22 28.8985 136.367 29.3426 134.311 29.3426ZM134.311 24.698C135.276 24.698 136.177 24.4696 137.014 24.0128C137.877 23.5305 138.562 22.8199 139.07 21.8808C139.578 20.9418 139.832 19.7996 139.832 18.4545C139.832 16.4495 139.299 14.9139 138.233 13.848C137.192 12.7566 135.91 12.2109 134.387 12.2109C132.865 12.2109 131.583 12.7566 130.542 13.848C129.527 14.9139 129.02 16.4495 129.02 18.4545C129.02 20.4595 129.514 22.0077 130.504 23.0991C131.519 24.1651 132.788 24.698 134.311 24.698Z" fill="#333333"/>
<path d="M0 13.2541C0.0565691 14.0764 0.146797 14.8499 0.277292 15.5653L0.278471 15.5718L0.279671 15.5782C0.542443 16.9925 1.04757 18.462 2.01083 19.7161C2.99152 21.0186 4.30315 21.8814 5.74304 22.3743C6.95769 22.7961 8.29607 23.0104 9.66509 23.1014C10.9321 23.1856 12.4076 23.225 14.0765 23.225C15.7453 23.225 17.2208 23.1856 18.4878 23.1014C19.8648 23.0099 21.2039 22.7946 22.4238 22.3794L22.4382 22.3745L22.4527 22.3695C23.8893 21.8683 25.1699 21.0049 26.1457 19.7487L26.171 19.7161L26.1956 19.683C27.1247 18.4349 27.6133 16.9774 27.8732 15.5782L27.8744 15.5718L27.8756 15.5653C28.0061 14.8499 28.0963 14.0764 28.1529 13.2541H24.1212C24.0737 13.8402 24.0068 14.3701 23.9204 14.8438C23.7285 15.8766 23.4119 16.6894 22.9705 17.2823C22.51 17.8752 21.8959 18.3055 21.1284 18.5733C20.3416 18.8411 19.3726 19.0132 18.2213 19.0897C17.0699 19.1662 15.6883 19.2044 14.0765 19.2044C12.4646 19.2044 11.083 19.1662 9.93166 19.0897C8.78032 19.0132 7.82088 18.8411 7.05332 18.5733C6.26658 18.3055 5.65253 17.8752 5.21119 17.2823C4.75065 16.6894 4.42444 15.8766 4.23255 14.8438C4.14615 14.3701 4.07919 13.8402 4.03169 13.2541H0Z" fill="#B4C5A1"/>
<path d="M5.89966 29.3362C5.92742 28.7762 5.97972 28.2428 6.06425 27.7476L6.06508 27.7428L6.06592 27.7379C6.21083 26.9045 6.50022 25.9621 7.10348 25.121C7.73095 24.2323 8.58637 23.625 9.53324 23.278C10.2921 22.9968 11.093 22.8661 11.8565 22.8119C12.5311 22.764 13.3021 22.7425 14.1568 22.7425C15.0115 22.7425 15.7825 22.764 16.457 22.8119C17.2265 22.8665 18.0248 22.998 18.7821 23.2734L18.7942 23.2778L18.8062 23.2823C19.7537 23.6355 20.586 24.2425 21.2055 25.0948L21.2245 25.121L21.243 25.1475C21.825 25.983 22.1047 26.9159 22.2476 27.7379L22.2484 27.7428L22.2493 27.7476C22.3338 28.2428 22.3861 28.7762 22.4139 29.3362H19.1926C19.1688 28.9433 19.1308 28.5942 19.0787 28.2889C18.9828 27.737 18.8245 27.3027 18.6038 26.9859C18.3735 26.6691 18.0665 26.4392 17.6827 26.2961C17.2894 26.1531 16.8048 26.0611 16.2292 26.0202C15.6535 25.9794 14.9627 25.9589 14.1568 25.9589C13.3508 25.9589 12.66 25.9794 12.0844 26.0202C11.5087 26.0611 11.029 26.1531 10.6452 26.2961C10.2518 26.4392 9.9448 26.6691 9.72413 26.9859C9.49386 27.3027 9.33075 27.737 9.23481 28.2889C9.18268 28.5942 9.14472 28.9433 9.12091 29.3362H5.89966Z" fill="#B4C5A1"/>
<path d="M3.94482 12.9324H7.96536C7.96651 11.7393 8.24298 10.6688 8.79477 9.72097C9.34772 8.7594 10.0965 8.0089 11.0411 7.46949C11.9857 6.93007 13.0225 6.66036 14.1514 6.66036C15.2919 6.66036 16.3287 6.93007 17.2618 7.46949C18.2064 8.0089 18.9494 8.7594 19.4908 9.72097C20.0426 10.6688 20.3191 11.7393 20.3202 12.9324H24.3408C24.3396 11.1025 23.9104 9.33206 22.9801 7.72336C22.09 6.15265 20.8375 4.88367 19.2648 3.98341C17.6866 3.07327 15.9523 2.63983 14.1514 2.63983C12.3508 2.63983 10.6228 3.0785 9.04739 3.97811C7.47261 4.87738 6.21613 6.14356 5.3147 7.70755C4.37807 9.32046 3.946 11.0965 3.94482 12.9324Z" fill="#B4C5A1"/>
</svg>
